# xmcd
#
# Track frame offsets: 
#        150
#        12317
#        22449
#        39144
#        102628
#        116737
#        148523
#        164487
#        179217
#
# Disc length: 2762 seconds
#
# Revision: 0
# Processed by: cddbd v1.5.2PL0 Copyright (c) Steve Scherf et al.
# Submitted via: ExactAudioCopy v0.99pb5
#
DISCID=830ac809
DTITLE=Black Sabbath  - Mythology  FLAC
DYEAR=1900
DGENRE=
TTITLE0=Mythology - Steppin´ out
TTITLE1=Mythology - Top of the hill
TTITLE2=Mythology - All your love
TTITLE3=Mythology - Help me
TTITLE4=Mythology - Dust my broom
TTITLE5=Mythology - All that jazz
TTITLE6=Mythology - Room with a view
TTITLE7=Mythology - Morning dew
TTITLE8=Mythology - Spoonful
EXTD=
EXTT0=
EXTT1=
EXTT2=
EXTT3=
EXTT4=
EXTT5=
EXTT6=
EXTT7=
EXTT8=
PLAYORDER=
